<svg width="161" height="119" viewBox="0 0 161 119" fill="none" xmlns="http://www.w3.org/2000/svg">
<path d="M159.876 115.733C159.048 117.092 157.713 118.066 156.167 118.44C154.62 118.815 152.988 118.56 151.63 117.731L81.6246 75.031C80.9519 74.6207 80.3667 74.0819 79.9022 73.4454C79.4378 72.8089 79.1032 72.0872 78.9177 71.3214C78.7322 70.5556 78.6993 69.7608 78.821 68.9823C78.9426 68.2039 79.2164 67.457 79.6267 66.7843C80.037 66.1116 80.5758 65.5263 81.2123 65.0619C81.8488 64.5974 82.5705 64.2629 83.3363 64.0774C84.1021 63.8919 84.8969 63.859 85.6754 63.9806C86.4539 64.1023 87.2008 64.3761 87.8735 64.7864L157.878 107.487C159.237 108.315 160.211 109.65 160.585 111.196C160.96 112.743 160.705 114.375 159.876 115.733V115.733Z" fill="black"/>
<path d="M89.8711 73.0334C84.9275 81.1382 77.6916 87.595 69.0783 91.5873C60.4651 95.5797 50.8614 96.9283 41.4817 95.4626C32.102 93.9968 23.3677 89.7826 16.3831 83.3528C9.39848 76.9231 4.47738 68.5665 2.24209 59.3399C0.00680256 50.1133 0.557711 40.4311 3.82516 31.5176C7.09261 22.6041 12.9299 14.8597 20.5987 9.26367C28.2676 3.66767 37.4236 0.471419 46.909 0.0791014C56.3944 -0.313216 65.7831 2.11603 73.8879 7.05963C84.7448 13.6988 92.5249 24.3734 95.5213 36.7416C98.5177 49.1098 96.4856 62.1615 89.8711 73.0334ZM18.1587 29.2916C14.451 35.3702 12.6291 42.4117 12.9234 49.5258C13.2176 56.6398 15.6148 63.5069 19.8118 69.2585C24.0088 75.0102 29.8171 79.3881 36.5022 81.8387C43.1873 84.2892 50.449 84.7024 57.3689 83.026C64.2889 81.3495 70.5563 77.6587 75.3786 72.4203C80.201 67.1818 83.3616 60.631 84.4609 53.5963C85.5602 46.5615 84.5488 39.3588 81.5545 32.8988C78.5603 26.4389 73.7176 21.012 67.6391 17.3043C59.4851 12.3433 49.6963 10.8193 40.4202 13.0666C31.144 15.3139 23.1381 21.1489 18.1587 29.2916V29.2916Z" fill="black"/>
</svg>
